<svg xmlns="http://www.w3.org/2000/svg" viewBox="0 0 880 435" role="img" aria-labelledby="maptitle"><title id="maptitle">Your computer connects through an SSM tunnel to a private hub. The hub coordinates two spokes and writes evidence to S3.</title>
<style>text{font-family:Segoe UI,sans-serif;fill:#16324a}.node rect{fill:#edf3f7;stroke:#88a9c0;stroke-width:2}</style><defs><marker id="arrow" markerWidth="7" markerHeight="7" refX="6" refY="3.5" orient="auto-start-reverse"><path d="M0 0L7 3.5L0 7" fill="none" stroke="#276baa"/></marker></defs>
<rect x="235" y="35" width="620" height="260" rx="12" fill="#f4f8fb" stroke="#88a9c0" stroke-dasharray="6 5"/><text x="252" y="61" font-size="15">Private network · No public application or SSH access</text>
<g stroke="#276baa" fill="none" stroke-width="2" marker-end="url(#arrow)"><path d="M184 173H298"/><path d="M474 158H550V116H626"/><path d="M474 184H550V229H626"/><path d="M385 216V347H627"/></g>
<text x="198" y="155" font-size="13">SSM tunnel</text><text x="501" y="145" font-size="13">Private TLS</text><text x="405" y="335" font-size="13">Versioned audit evidence</text>
<g class="node" data-node="computer" tabindex="0" role="button" aria-label="Your computer"><rect x="16" y="137" width="168" height="78" rx="8"/><text x="34" y="168" font-size="20">Your computer</text><text x="34" y="193" font-size="14">Browser + AWS login</text></g>
<g class="node active" data-node="hub" tabindex="0" role="button" aria-label="Hub"><rect x="298" y="125" width="176" height="91" rx="8"/><text x="317" y="156" font-size="23">Hub</text><text x="317" y="181" font-size="14">Jobs, approvals, leases</text><text x="317" y="202" font-size="13">t3.small · 10.43.1.10</text></g>
<g class="node" data-node="worker" tabindex="0" role="button" aria-label="Worker spoke"><rect x="626" y="79" width="204" height="74" rx="8"/><text x="644" y="108" font-size="21">Worker spoke</text><text x="644" y="134" font-size="14">t3.micro · scoped identity</text></g>
<g class="node" data-node="reviewer" tabindex="0" role="button" aria-label="Reviewer spoke"><rect x="626" y="193" width="204" height="74" rx="8"/><text x="644" y="222" font-size="21">Reviewer spoke</text><text x="644" y="248" font-size="14">t3.micro · scoped identity</text></g>
<g class="node" data-node="evidence" tabindex="0" role="button" aria-label="S3 evidence"><rect x="627" y="316" width="204" height="83" rx="8"/><text x="645" y="348" font-size="21">S3 evidence</text><text x="645" y="374" font-size="14">Encrypted · 1-day lock</text></g>
<g class="node" data-node="deploy" tabindex="0" role="button" aria-label="Deployment and shutdown"><rect x="16" y="316" width="262" height="83" rx="8"/><text x="34" y="348" font-size="19">Deployment &amp; shutdown</text><text x="34" y="374" font-size="14">GitHub OIDC · 2-hour stop</text></g></svg>